<svg id="Calque_1" data-name="Calque 1" xmlns="http://www.w3.org/2000/svg" viewBox="0 0 814.6 338.53"><defs>
<style>
.cls-1{fill:#0a2129;}
.cls-2{fill:#0c232b;}
.cls-3{fill:#0d242b;}
.cls-4{fill:#122830;}
.cls-5{fill:#142628;}
.cls-6{fill:#152729;}
.cls-7{fill:#152628;}
.cls-8{fill:#162728;}
.cls-9{fill:#538a64;}
.cls-10{fill:#1a2a2c;}
.cls-11{fill:#fefefe;}
.cls-12{fill:#fdfdfd;}
</style>
</defs><path class="cls-1" d="M754.93,397.41h34.64c-1.91-4.11-4.5-7.82-2.46-12.21a12.13,12.13,0,0,1,5.68-6A13.84,13.84,0,0,1,810.51,384c4.73,7.14,3,18.06-3.68,24.35a22.59,22.59,0,0,1-15.43,6c-21.27.32-42.53.21-63.8.27h-8.66c14.7-30.93,42.36-49.85,62.59-74.94-.77-2-2.54-1.27-3.88-1.28-7.81-.06-15.62.11-23.43-.05-3.28-.07-4.89.68-5.84,4.27a11.63,11.63,0,0,1-14.6,8.47A13.25,13.25,0,0,1,724.56,336c1.57-8.12,8-13.78,17.26-13.9,23-.31,46-.11,69-.22,3.19,0,3.68.89,2.47,3.76a90.12,90.12,0,0,1-17.36,26.53q-17.25,18.61-34.43,37.3C759.52,391.6,757.75,394,754.93,397.41Z" transform="translate(-308.14 -209.45)"/><path class="cls-1" d="M950.57,443.34c-6.4-4.21-7.81-7.23-5.82-12.11a10.1,10.1,0,0,1,11.41-6,11,11,0,0,1,9,11.51c-.18,8.59-5.71,13.34-12.89,16-13.74,5.14-27.25,3.54-39.92-3.52-13.62-7.59-20.58-19.31-20.52-35.12.1-25.13-.07-50.26.09-75.39.09-13.33,8.08-22.41,20.67-24,3-.38,6.17-.63,9.51,1.49-4.23,2.42-8.22,4.48-10.64,8.41A21.56,21.56,0,0,0,907.93,336c0,27-.37,53.93.14,80.88.34,18.23,15.59,31.1,33.71,29.61A15.42,15.42,0,0,0,950.57,443.34Z" transform="translate(-308.14 -209.45)"/>
<path class="cls-2" d="M1026.32,433.29c7.47-1.08,13.08-9.44,11.57-16.27-.46-2-1.75-1.65-3-1.66-4.32,0-8.66-.1-13,0-2.4.07-3.44-.41-2.39-3.05,1.34-3.39.26-5.51-3-7.65-12.65-8.24-15.39-24.19-6.66-36.31a26.26,26.26,0,0,1,37.05-6,13,13,0,0,0,3,1.73c1.27.5,4-1.68,3.74,1.2-.16,2.15.43,5.42-2.57,6.43-2,.69-4,1.35-6.2-1.06-5.79-6.48-14.19-5.33-18.73,2.14-5.72,9.41-1.29,23.93,8.66,28.88,2.53,1.26,3.18.68,3.15-1.95-.09-6.33.06-12.66-.11-19-.07-2.63.63-4,3.44-4.27a58.61,58.61,0,0,0,8.78-1.77c3.25-.87,4,.37,3.91,3.45-.16,12.82.17,25.65-.17,38.46-.59,22.32-23.06,30.47-38.34,24.16-6.47-2.67-9.19-8.89-6.76-14.59a10.11,10.11,0,0,1,13.39-5.16C1027.14,423.18,1028.46,426.78,1026.32,433.29Z" transform="translate(-308.14 -209.45)"/><path class="cls-3" d="M1122.74,365.31c-.19,5.65-2.34,8.77-7.09,10.9-10.61,4.77-20.89,10.25-31.43,15.18-3.2,1.5-3,2.67-.9,4.94,8,8.79,21.75,9.43,31.58,1.29,1.91-1.58,3.64-3.38,6-5.62.38,5.81-1.72,10.14-4.94,13.89-7.93,9.22-18.2,11.35-29.46,8.36C1075,411.19,1068,403,1065.86,391.52c-3.88-20.59,12.92-37.56,33-33.85,4.94.91,9.41,3.07,12.22,7.13,2.71,3.89,5.34,4.25,9,1.84A26.25,26.25,0,0,1,1122.74,365.31Zm-42.86,15.29c5.89-1.75,10.17-5,14.89-7.24,1-.48,2.55-.72,2.56-2.08,0-1.65-1.71-1.84-2.86-2.26-3.11-1.13-5.92-.19-8.42,1.72C1083.05,373,1081.23,376.17,1079.88,380.6Z" transform="translate(-308.14 -209.45)"/><path class="cls-3" d="M880.78,391.93c-1,11-6.27,17.85-15.36,21.38-10.56,4.1-20.62,2.63-29.45-4.77a29.84,29.84,0,0,1-7.77-35.33,28.23,28.23,0,0,1,30.55-15.64c4.25.73,8.28,2.3,10.91,5.55,3.43,4.21,6.61,6.85,12,1.58-.24,5.91-1.64,9.36-6.54,11.58-10.28,4.67-20.2,10.11-30.41,15-3.41,1.61-3.18,2.77-.88,5.21,7.87,8.33,20.23,9.19,29.83,1.78C875.88,396.52,877.86,394.53,880.78,391.93Zm-40.63-10.8c5.55-2.89,10.28-5.33,15-7.84,1-.52,2.57-.67,2.54-2.07,0-1.62-1.73-1.86-2.89-2.25-3.11-1-5.94-.13-8.42,1.8C843.36,373.08,841.52,376.19,840.15,381.13Z" transform="translate(-308.14 -209.45)"/><path class="cls-1" d="M927,415.17c3.61-4.53,3.42-8.86,3.41-13.19,0-20.64-.07-41.28.08-61.92.11-15.35,10.73-25.81,25.43-25.42a9,9,0,0,1,4.94,1.1,1.51,1.51,0,0,1-1.13,1.72c-9.68,4.43-13.41,12.6-13.49,22.6-.19,21.64,0,43.28-.16,64.92,0,3.21,1.09,4,4,3.79,3.73-.3,6.52-2.26,9.26-4.49,1.61-1.32,2.93-3.14,5.92-3.84-1.11,5.21-3.27,9.41-5.22,13.68-.52,1.16-1.57,1-2.56,1Z" transform="translate(-308.14 -209.45)"/><path class="cls-4" d="M997.86,415H971.59c7.65-6.14,5-14.15,5.33-21.51.23-5-.17-10,.11-15,.25-4.38-1.59-6.9-5.58-8.28-.94-.33-2.66.07-2.57-1.68.07-1.46,1.41-1.62,2.56-1.89,5.84-1.36,11.7-2.63,17.49-4.15,3-.78,3.74.12,3.69,3.08-.16,10.66,0,21.32-.15,32-.11,6.3-.28,12.45,6.23,16.48Z" transform="translate(-308.14 -209.45)"/><path class="cls-4" d="M993.17,344.85a8.56,8.56,0,0,1-8.91,8.23,8.17,8.17,0,0,1-7.56-8.39,8,8,0,0,1,8.59-7.82A7.83,7.83,0,0,1,993.17,344.85Z" transform="translate(-308.14 -209.45)"/><path class="cls-5" d="M502.21,411.92,502,406c0-1.79.4-3.71-.13-5.34-1.16-3.6.35-4,3.49-4.2s6.46,1.29,9.73.3h3c4.06.7,8.62.4,11.51,3.95,3.68,4.51,7,9.32,10.34,14.08.4.56,1.62,1.47.3,2.49-1,.78-1.43-.2-2-.63-6.23-4.78-13.49-7.06-21-8.68-3.47-.75-6.09-.66-4.57,4.29.93,3,.95,6.26,1.78,9.29A26.57,26.57,0,0,0,526,437.7c-.53-6.12-2.57-10.89-3.92-15.83-.94-3.44,0-4.69,3.62-3.52,7.46,2.36,15,4.55,22.46,6.83a11.85,11.85,0,0,1,4.9,3.33q7.38,7.46,14.91,14.77a12.23,12.23,0,0,0,12.87,3.19c3.83-1.21,4.81-4.06,2.52-7.3a35.26,35.26,0,0,0-4.34-4.81c-8.77-8.67-17.62-17.24-26.35-25.95-5.42-5.41-5.33-5.48,1-10.24,1.46-1.1,2.85-2.3,4.22-3.51,6-5.24,6.06-5.33,11,.63a54.75,54.75,0,0,0,22,15.94c2.74,1.1,7.39,1.88,7.76,3.55.64,2.94-3.49,4.66-5.7,6.65-2.9,2.61-2.47,4.39-.21,7a24.6,24.6,0,0,1,6.09,14c.86,7.81-2.49,14.22-6.26,20.55a.61.61,0,0,0-.42.76c-1.37,4.79,2.91,7.1,4.65,10.53l0-.05C599.6,481.16,603,488,602,496h0l-15,.66a15.39,15.39,0,0,0-7,0c-3.59-.07-6-2.19-8.49-4.49-22.11-20.16-41-43.72-65.19-61.69a8.9,8.9,0,0,1-3.7-8.69C503,418.51,503.58,415.13,502.21,411.92Zm59.1,48c-1.75-10.58-13.6-22.21-22.13-22.17C544.82,446.74,550,455.88,561.31,460Z" transform="translate(-308.14 -209.45)"/><path class="cls-6" d="M590.8,349.48c-8.65,2.86-15.25,8.6-21.13,15.27-6.25,7.12-6.19,7.17-13.5,1.07-9-7.51-9-7.57-.84-15.83,8.43-8.5,17-16.86,25.5-25.28.59-.59,1.23-1.13,1.77-1.76,2-2.35,3.87-4.95,1.9-8-2.07-3.25-5.42-3.57-8.88-2.67a12.54,12.54,0,0,0-5.43,3.42c-4.33,4.13-8.89,8.07-12.82,12.56-5.34,6.1-11.58,10.25-19.64,11.7-2.92.53-5.73,1.72-8.61,2.51-7.73,2.14-7.72,2.11-5.93-6,.76-3.46,2.43-6.79,1.78-10.5h.65l-.1-.42-.47.54c-4.24,1.6-6,5.35-7.91,9-2.31,4.51-2.88,9.52-4.1,14.35-1,3.93.86,4.64,4.16,4.15a49.83,49.83,0,0,0,16.46-5.5c1.94-1,3.84-2.68,6.84-1.7a87.51,87.51,0,0,1-10,14.39,9.83,9.83,0,0,1-6.66,3.11c-6.28.62-12.58,1.07-18.87,1.57-2,.16-3.51.09-3.28-2.81.63-7.78,1.37-15.54,1.09-23.39-.14-4,2.74-6.85,5.69-9,20.32-14.55,37-33,53.66-51.3,11.53-12.66,24.19-16.19,39.89-14l.05.08c.21,6.94-.45,14.12-4.8,19.46-6.39,7.85-6,14.85-.14,22.33.2.26.42.5.63.75l-.09.29.23.2c2.2,8.78,1.22,16.91-4.91,24h0c-2.4,1.33-2.88,2.87-.7,4.92,1.29,1.23,2.4,2.66,3.61,4,4,4.32,4,4.31-1,6.91A6.74,6.74,0,0,0,590.8,349.48ZM561.33,303c-9.87.72-19.41,11.07-20.11,21.27C551.29,320.46,556.72,312.66,561.33,303Z" transform="translate(-308.14 -209.45)"/><path class="cls-7" d="M426.65,296.46c9.87,10.37,20,20.49,31.17,29.47,2.2,1.77,4.38,3.58,6.46,5.5,3.31,3.05,5.15,6.5,4.8,11.41a109.38,109.38,0,0,0,.37,18.45c.35,3.65-.84,4.26-4,4-2.79-.18-5.58-1.19-8.41-.33h-2c-12.92-2.43-20.57-8.54-26.3-21.41,2.5,1.21,4.55,2.19,6.59,3.19,5.39,2.62,10.73,5.32,16.73,6.37,6.71,1.17,7.1.9,6-5.51a64.35,64.35,0,0,0-1.57-7.32,24.74,24.74,0,0,0-12.37-15.09,113.19,113.19,0,0,0,4,14.38c1,3.06,1.17,4.84-3.1,3.56-6.51-2-13.13-3.59-19.73-5.28a17.91,17.91,0,0,1-8.3-5.23c-5.27-5.27-9.39-11.67-15.66-16h0a8,8,0,0,0-5.52-3.06c-3-.33-6,0-7.88,2.91-2,3.12,0,5.32,1.94,7.47.89,1,1.87,1.9,2.81,2.84,8.62,8.54,17.3,17,25.83,25.66,6,6,5.87,6.11-.41,11.34-1.27,1.06-2.54,2.13-3.84,3.17-5.36,4.27-5.55,4.42-10.22-1-7.19-8.38-15.56-14.9-26.16-18.42-5.9-2-5.86-2.1-1.62-6.57,6.3-6.63,6.3-6.63.81-12.33l-2.12-3.63c-2.35-8.75-1.76-17.22,3.51-24.75,2.52-3.59,2.35-6.12-.12-9.61-4.51-6.4-8.22-13.22-8.48-21.46-.11-3.31.46-4.94,4.19-4.62a61.63,61.63,0,0,0,11.44.18c6.27-.62,10.79,2.08,14.93,6.37s8.61,8.27,12.94,12.39l.21.19a138.6,138.6,0,0,0,13.09,12.67Zm-19.19,6.81a55.7,55.7,0,0,0,19.46,20.2c.68.42,1.48,1,2.22.19s.06-1.58-.23-2.31a33.16,33.16,0,0,0-10-14.08C415.8,304.75,412.37,303,407.46,303.27Z" transform="translate(-308.14 -209.45)"/><path class="cls-7" d="M470.05,397l-.12,3a57.69,57.69,0,0,0-.76,18.83c.8,7-2.39,11-7.44,14.51a150.83,150.83,0,0,0-21.66,18.41c-13.3,13.55-26.89,26.82-40.32,40.24-2.42,2.42-4.89,4.43-8.59,4.41-5.83,0-11.67,0-17.49.22-3,.12-4-.85-4-4,.07-8.26,3.56-15.22,8-21.71,2.84-4.15,3.25-7.28.4-11.89-5.25-8.49-6.44-17.72-1.25-27,1.44-2.57,5.37-4.56,4.6-7.2s-4-4.77-6.43-6.73c-3.37-2.69-2.15-3.59,1.16-4.56A56.09,56.09,0,0,0,398.69,401c3.71-3.39,6.73-9.93,11.28-9.38,4.33.52,8,6.05,12.09,9.15,2.41,1.8,2.73,2.94.34,5.22-7.82,7.48-15.38,15.24-23.08,22.85-3.08,3-6.3,5.94-9.37,9-1.42,1.41-2.86,3-2.07,5.27.88,2.45,3,3.4,5.43,3.85a11.13,11.13,0,0,0,10.11-3.09c3.26-3.09,6.19-6.54,9.56-9.5s5.54-7.38,10-8.82c7.11-2.32,14.39-4.07,21.58-6.15,3.93-1.13,5.27-.06,4,4-1.44,4.71-2.65,9.49-4,14.25,1.73.37,2.31-.6,3.07-1.18,7.95-6,9.19-15,10.73-23.91.65-3.82-.87-4-3.64-3.43a97.26,97.26,0,0,0-18.11,5.58c-1.72.69-3.37,1.83-5.57.94,3-3.94,5.77-7.68,8.68-11.28,1.89-2.32,3.89-5.05,7-5.32C454.53,398.42,462.19,396.56,470.05,397Zm-39.3,41c-10.55,2.62-20.56,13.16-21.39,22C420.44,456.68,425.23,447.73,430.75,438Z" transform="translate(-308.14 -209.45)"/><path class="cls-5" d="M506.77,266c-4.25,9.88-11.16,17.78-18.53,25.41-1.91,2-3.05,1.86-4.71,0-4.06-4.54-8.2-9-12.31-13.51h0c-.47-.86-.89-1.75-1.42-2.58-8.28-13.08-8.76-26.17.17-39.13,4.34-6.29,9.1-12.28,13.38-18.61,2-3,3.21-3,5.15,0a129.37,129.37,0,0,0,12.41,16.78.58.58,0,0,0,.4.71c6.27,9.18,8,19.2,5.7,30Zm-15.6-10.28c-.08-4.18-3.83-11-5.68-10.17-4,1.86-4.86,5.92-5.19,10,0,.16,0,.33,0,.49.1,4.37,3.32,11.15,5.29,11.18C487.84,267.21,491.25,260.18,491.17,255.68Z" transform="translate(-308.14 -209.45)"/><path class="cls-7" d="M471.57,529.43c-8.56-11.52-10.42-23.89-4.31-37,3.85-8.27,10.27-14.64,16.61-21,2-2,3.19-.76,4.47.65,4.23,4.66,8.44,9.35,12.65,14l1.29,1.89c7.25,12.91,8.39,25.79-.38,38.51-4.53,6.58-9.36,12.95-13.76,19.61-1.93,2.93-2.82,2.17-4.4-.15-3.83-5.62-7.6-11.31-12.14-16.43Zm8.76-21.36c0,4.34,3.44,11.15,5.31,10.39,4.32-1.73,4.79-6,5.3-10A8.22,8.22,0,0,0,491,507c-.23-4.26-4-11.11-5.68-10.23-3.75,2-4.27,6-5,9.8A8.23,8.23,0,0,0,480.33,508.07Z" transform="translate(-308.14 -209.45)"/><path class="cls-5" d="M579,386c-5.53-6.3-5.4-6.17.9-12.2s13.17-11,21.36-14.11l3.77-.94c1.76.31,3.37-.33,5-.77,5.12-.18,10,1.3,14.92,2.29l6,3.11.18.14c4.19,3.45,8.41,6.87,12.56,10.37,6.7,5.67,6.68,5.69,1,12l-.81.61c-3.37,2.67-6.63,5.49-10.13,8-10.06,7.16-21,9.2-33,5.62C593,397.77,587.31,392.48,581,388A3.49,3.49,0,0,0,579,386ZM611,385a15.79,15.79,0,0,0,9-2.48c2.56-1.76,2.69-3.56-.19-5.22-6-3.47-12-3.31-18,0-3.52,1.95-2.69,3.6.18,5.12A19.47,19.47,0,0,0,611,385Z" transform="translate(-308.14 -209.45)"/><path class="cls-5" d="M398.58,381.57c-5.58,4.41-10.52,9.59-16.52,13.51-14.45,9.45-30.86,9.06-44.53-1.49-5-3.83-9.63-8.1-14.43-12.16l-.66-2.31c8.7-7.36,16.6-15.84,27.67-19.92l1.93-.45,9-.73,8.91,1.24c10.4,3.93,18.93,10.57,26.62,18.39C397.59,378.68,399.73,379.36,398.58,381.57ZM360,385.17c5.3,0,12.81-3.29,12.53-5.53-.3-2.41-8.77-5.48-13.43-4.78-3.81.57-7.75,1.39-9.54,5.21C348.73,381.85,355.52,385.16,360,385.17Z" transform="translate(-308.14 -209.45)"/><path class="cls-8" d="M416.14,495.18c13.73-13.75,27.39-27.57,41.22-41.21,6.25-6.17,6.37-6,12.3.52,1.79,1.95,3.88,3.64,6,5.66-3.36,3.07-6.3,5.89-9.38,8.55-4.62,4-8.28,8.6-9.68,14.73C455,490.7,449.4,493.72,443,495.8l-2,.33-4.12.49c-1.39-.38-2.62.18-3.87.66L416,497Z" transform="translate(-308.14 -209.45)"/><path class="cls-6" d="M556.09,265c-1.8,4.07-5.43,6.59-8.4,9.62-12.25,12.49-24.3,25.16-37.16,37-2.61,2.42-4.27,2.89-6.48-.46s-7-6.25-6.9-9.29c.05-2.65,5.28-5.15,8.14-7.81,3.16-2.93,7.16-5.5,8.09-9.91,2.4-11.42,9.36-17.5,20.67-19.05l7-.55,14,.09Z" transform="translate(-308.14 -209.45)"/><path class="cls-5" d="M502.13,453.22c5-5,5.06-5.08,10.56,0,14,12.81,26.92,26.65,40.33,40,.86.86,2.23,1.55,1.92,3.58-9.88.52-19.75.88-29.4-2-4.76-1.43-8.43-4.62-9.62-9.36-2.74-10.89-11-17-19.08-23.36l-.71-2c2.32-1.43,3.81-3.61,5.23-5.85Z" transform="translate(-308.14 -209.45)"/><path class="cls-8" d="M501.76,378.09c.29,8-3,13.59-9.54,16.3-7.5,3.1-13.08,1.55-19.84-5.53-1.87-4.47-2.69-9.05-1.28-13.83,8.15-13.1,21.1-13.08,29.68,0Z" transform="translate(-308.14 -209.45)"/><path class="cls-9" d="M417.29,531.85l-1.91-3c-.2-1-.39-1.94-.61-2.91-1.76-7.84,2.69-14.74,10.2-15.81,7.94-1.14,14.63,3.78,15.27,11.23.75,8.6-4.54,14.31-13.06,14.55C423.16,536,420.33,533.82,417.29,531.85Z" transform="translate(-308.14 -209.45)"/><path class="cls-10" d="M482.55,448.76c-6-5.46-6.56-11.07-1.39-17.68,2.46-3.13,1.06-7.35.39-11.08-.92-5.15-1-10.18,1.81-14.86a4.33,4.33,0,0,1,4.69-.16,16.3,16.3,0,0,1,2.31,14.23c-1.11,4.18-2.42,8.92.46,12.58,5.27,6.71,3.35,11.91-2.13,17-.84.78-1.35,1.9-2.15,2.74-1.11,1.18-1.66-.37-2.47-.64Z" transform="translate(-308.14 -209.45)"/><path class="cls-10" d="M512.14,380a17,17,0,0,1,12.25-4.22c3.85.1,7.78-1.35,11.63-2.3,6.2-1.53,10.93.83,15.16,5.15,1.47,1.49,1.49,2.34.15,4-5.23,6.42-11.84,7.25-19.28,5.27a3.53,3.53,0,0,0-3-1,4.26,4.26,0,0,0-4-.41l-7.82-1-5-3.85Z" transform="translate(-308.14 -209.45)"/><path class="cls-11" d="M591.23,502c1.06.28,2.95-.69,3.21,1.11s-1.59,1.74-2.8,2.12c-2.62.81-5.12,2.49-8,1.4a2.7,2.7,0,0,1-2.08-2.48c.08-1.33,1.4-1,2.33-1.15Z" transform="translate(-308.14 -209.45)"/><path class="cls-11" d="M328.25,362.45a2,2,0,0,1-2.79-2.1c0-2.23,1-4.38,3.67-4.2,1.8.12,4.6.19,4.69,2.51C334,362.47,329.82,361,328.25,362.45Z" transform="translate(-308.14 -209.45)"/><path class="cls-11" d="M426.75,542.93c1.55.09,3.64-.19,3.7,1.68.07,2.09-2.1,2.3-3.73,2.21-1.45-.07-3.34-.48-3.34-2.27C423.37,542.22,425.55,543.26,426.75,542.93Z" transform="translate(-308.14 -209.45)"/><path class="cls-11" d="M666.61,404.41c2.61,4.31.13,7.21.24,10.21,0,1-.62,2.09-1.84,1.82s-1.18-1.66-.79-2.43C665.59,411.36,666,408.46,666.61,404.41Z" transform="translate(-308.14 -209.45)"/><path class="cls-11" d="M657.87,387.33c-.08,1.55-.91,2.57-2.4,2.49s-3.08-.55-3.25-2.33c-.15-1.53,1-2.3,2.46-2.42A2.66,2.66,0,0,1,657.87,387.33Z" transform="translate(-308.14 -209.45)"/><path class="cls-11" d="M640.68,359c-1.25-.32-3.39.69-3.35-1.72,0-1.54,1.68-2,3-2.1,1.51-.07,3.26.41,3.38,2.18C643.82,359.43,641.91,358.81,640.68,359Z" transform="translate(-308.14 -209.45)"/><path class="cls-11" d="M401.9,243c1.39.13,3-.18,2.9,1.85a2,2,0,0,1-2.35,2c-1.44-.17-3.19-.55-3.13-2.44C399.37,242.87,400.94,243.17,401.9,243Z" transform="translate(-308.14 -209.45)"/><path class="cls-11" d="M516.43,514.61c.85,3.37.34,5.6-1.57,7-1.72,1.29-2.69-.6-1.28-2.74Z" transform="translate(-308.14 -209.45)"/><path class="cls-11" d="M609.4,407.71c-1.43,1.76-2.67,3.84-5.37,3-.29-.09-.67-.94-.54-1.14C604.84,407.4,606.88,407,609.4,407.71Z" transform="translate(-308.14 -209.45)"/><path class="cls-11" d="M560.58,493.13a2.44,2.44,0,0,1,2.35,2.58c.06,1.05-.22,2.06-1.47,2.05-1.55,0-2.27-1.08-2.36-2.55C559,494.17,559.32,493.28,560.58,493.13Z" transform="translate(-308.14 -209.45)"/><path class="cls-11" d="M659.94,375.06c-.1.88-.36,1.81-1.45,1.43a3.15,3.15,0,0,1-2.31-2.92,1.28,1.28,0,0,1,1.62-1.37C659.4,372.45,659.91,373.6,659.94,375.06Z" transform="translate(-308.14 -209.45)"/><path class="cls-11" d="M326.77,308.2c-.76-2.38-1.32-4.05.12-5.59.15-.16,1,0,1.27.32C329.78,304.82,328.57,306.22,326.77,308.2Z" transform="translate(-308.14 -209.45)"/><path class="cls-11" d="M588,228.92c-1.41-2-.81-3.59-.65-6C590.12,225,590.26,226.64,588,228.92Z" transform="translate(-308.14 -209.45)"/><path class="cls-11" d="M604.86,352.49a2.23,2.23,0,0,1-2.06,2.34c-.65.09-1.45-.07-1.37-1a2.86,2.86,0,0,1,2.16-2.42C604.28,351.22,604.82,351.67,604.86,352.49Z" transform="translate(-308.14 -209.45)"/><path class="cls-11" d="M500.71,217.78a1.63,1.63,0,0,1-1.32,1.82c-.72.14-1.19-.39-1.24-1.12s-.2-1.73.86-2S500.39,217.08,500.71,217.78Z" transform="translate(-308.14 -209.45)"/><path class="cls-11" d="M492.37,209.45c.85.36,1.46.92,1.27,1.84a1.4,1.4,0,0,1-1.69,1.3c-.8-.16-.85-.87-.85-1.52C491.08,210.18,491.34,209.49,492.37,209.45Z" transform="translate(-308.14 -209.45)"/><path class="cls-11" d="M366.89,313.22c0,.68-.1,1.39-1,1.37a1.74,1.74,0,0,1-1.65-1.54c-.22-.93.11-1.76,1.17-1.61A1.88,1.88,0,0,1,366.89,313.22Z" transform="translate(-308.14 -209.45)"/><path class="cls-11" d="M325.27,319.41c.84.27,1.49.73,1.42,1.69a1.49,1.49,0,0,1-1.56,1.5c-.87,0-1-.75-1-1.39C324.08,320.38,324.21,319.58,325.27,319.41Z" transform="translate(-308.14 -209.45)"/><path class="cls-11" d="M309.1,333.07c1.26,1.85,1.08,3.12-.05,5.17C307.88,336.05,307.77,334.77,309.1,333.07Z" transform="translate(-308.14 -209.45)"/><path class="cls-11" d="M341.54,458.15a1.39,1.39,0,0,1-1.62.73c-.61-.08-1.47-.13-1.24-1.07.17-.73.93-.82,1.58-.74S341.62,457.19,341.54,458.15Z" transform="translate(-308.14 -209.45)"/><path class="cls-11" d="M652.66,369.43c0,1-.53,1.43-1.25,1.4a1.23,1.23,0,0,1-1.23-1.24c0-.73.4-1.36,1.14-1.18C651.86,368.54,652.29,369.14,652.66,369.43Z" transform="translate(-308.14 -209.45)"/><path class="cls-11" d="M557,543c-.05.64-.05,1.41-.93,1.4s-.9-.78-.9-1.42,0-1.41.92-1.4S556.9,542.31,557,543Z" transform="translate(-308.14 -209.45)"/><path class="cls-11" d="M437.85,502.85c-.47.4-.76.83-1.09.87s-1.06-.17-1.16-.45c-.29-.73.26-1.15.94-1.13C436.91,502.15,437.27,502.52,437.85,502.85Z" transform="translate(-308.14 -209.45)"/><path class="cls-11" d="M604.63,290.76c-.12.28-.18.7-.39.78s-.53-.19-.81-.31c.13-.28.19-.71.39-.79S604.35,290.64,604.63,290.76Z" transform="translate(-308.14 -209.45)"/><path class="cls-12" d="M399.14,382.08c4.83-1.53,2.83-3.87.53-5.89-3.54-3.09-6.79-6.29-7.62-11.19,5,.21,8.77,3.28,12.4,6,2.73,2.06,5.28,3.26,8.58,3,.8-.07,2.08-.14,2.28-.59,2.31-5.28,5.84-8.94,11.51-10.89,1-.34.89-4.68.74-7.14-.09-1.42-.5-3.48-2.89-3.32-2.2.15-3.29-1.15-4.11-2.95-.91-2-2-3.84-4.56-4.12-.46,0-1.29-.33-1.3-.52-.1-3.87-4.12-4.79-5.5-7.23-3.17-5.59-8.23-8.63-13.06-12.1-2.17-1.57-3.24-3.68-2.41-5.88s2.79-3.71,5.62-2.37c.51.24,1.29-.09,1.95-.16h0a11.77,11.77,0,0,0,4.5,8.4c3,2.65,4.48,6.82,8.86,9,1.72.84,3.49,3.54,5.71,5.12,1.5,1.08,5,1.11,4.36,3.87-1,4,1.43,6,4,7.67,2.92,1.94,4.54,4.34,4.29,7.79-.21,2.85,1.13,4,3.7,4.94,3.62,1.29,9,0,9.67,6.2.11,1,1.87,1.75,2.95,1,2.2-1.54,5.39-2.2,5.71-5.66h2c1.22,4.09,5.06,5.6,8.22,5.47s4.88-.56,4.38,3.36c0,.33.95.79,1.46,1.19-1.41,4.78-.59,9.36,1.28,13.83-1.5.61-1.38,2.18-1.93,3.33-1,2-2.08,2.88-4.67,2.32-7.91-1.71-15.79,1.41-23.75.58-.52-.06-1.54.49-1.59.86-.69,4.85-6,6.92-6.86,11.72-.22,1.32-1,3.39-2.81,2.88s-4.16-2.32-3.45-4.26c1.78-4.83-1-6.14-4.38-8.28-3.22-2-5.67-5.31-8.66-7.87-4.43-3.79-10.49-2.93-12.3,2.56-1,2.86-3.46,2.33-5.34,2.77-2.06.49-1.3-1.78-1.83-2.8-1.12-2.17-.83-4.12,1.64-4.77C400,387,400.25,385,399.14,382.08Zm22.18-3.68c-1.53-.95-3.32-2.42-4.76-.5-1.05,1.39-.75,3.29.39,5,2,3,4.37,4.51,8,3.32l.26.18c-.7,2.52,2,3.12,2.71,4.84,2.24,5.67,6.27,1.09,9.37,1.5s2.73-2.57,2.76-4.71a4,4,0,0,1,3-.89c.26,1.15-.63,3.12,1,3.26,2.05.16,2.83-1.68,3-3.59l7-.9c.4.51.71,1.35,1.21,1.48,1.52.42,9.47-5.89,9.62-7.49,0-.32.08-.82-.09-.95-2.69-2-4.78-5-8.19-5.86-2.31-.58-2.57,1.42-2.62,3.17l-4.9-.61c-1.78-3.11-6.88-2.74-7.49-7.2-.07-.52-1.54-.47-2.17.2-1.81,2-3.77,1.15-5.91.66-5.73-1.29-12.4,3.77-12.11,9Z" transform="translate(-308.14 -209.45)"/><path class="cls-8" d="M415.49,265.06c9.91-.14,19.74-1,29.36,1.88,5.12,1.52,9.53,4.36,10.71,9.53,2.32,10.09,9.43,16.23,16.8,22.21,2.62,2.12,2.89,3.18.33,5.49a53.72,53.72,0,0,0-6.4,7.65c-1.29,1.69-2.36,2-4,.41-15.95-15.1-31.65-30.44-47-46.19C415.26,266,415.37,265.74,415.49,265.06Z" transform="translate(-308.14 -209.45)"/><path class="cls-10" d="M480.74,348.37c.4-2.4.76-4.69,1.18-7,1-5.44-.64-10.27-3.82-14.5-2.12-2.8-1.83-5,.42-7.35a33.72,33.72,0,0,0,2.71-3.56c4.44-6.07,4.32-6,8.81-.22,3.57,4.57,6.06,8.58,1.37,14.29-3.18,3.88-2.52,9.16-1,13.9a14.37,14.37,0,0,1-.42,9.73c-.79,2.05-2,4.32-4.4,4.11-2-.17-3.34-2.06-3.82-4.15C481.34,351.9,481.06,350.1,480.74,348.37Z" transform="translate(-308.14 -209.45)"/><path class="cls-9" d="M346.83,450.05c-7.89.05-13-4.89-12.93-12.54s5.27-13.07,12.63-13.17c7.06-.1,13.32,5.77,13.48,12.62C360.17,444.45,354.59,450,346.83,450.05Z" transform="translate(-308.14 -209.45)"/><path class="cls-9" d="M544.5,225.91a12.8,12.8,0,0,1,13.17,12.74c.19,7.13-5.76,12.86-13.6,13.09-7.12.22-12.46-5.32-12.69-13.17C531.16,231.35,536.71,226,544.5,225.91Z" transform="translate(-308.14 -209.45)"/><path class="cls-9" d="M426.88,251.67a12.89,12.89,0,1,1,13.43-13.34C440.52,246.25,435.23,251.51,426.88,251.67Z" transform="translate(-308.14 -209.45)"/><path class="cls-9" d="M346.8,336.21c-7.72.07-12.92-5-13-12.6-.12-8.4,4.86-13.66,13-13.72a13.16,13.16,0,1,1,.06,26.32Z" transform="translate(-308.14 -209.45)"/><path class="cls-9" d="M612.85,437c-.08-7.28,5.1-12.52,12.57-12.69a13.23,13.23,0,0,1,13.42,13.21A12.72,12.72,0,0,1,626,450.11C618,450.24,613,445.18,612.85,437Z" transform="translate(-308.14 -209.45)"/><path class="cls-9" d="M625.15,336.16c-7.48-.19-12.46-5.6-12.31-13.38a13,13,0,1,1,26.06.6A13,13,0,0,1,625.15,336.16Z" transform="translate(-308.14 -209.45)"/><path class="cls-9" d="M557.31,522.79c.07,7.54-5.42,12.91-13.32,13-7.32.11-12.54-5.22-12.73-13-.19-7.17,5.39-12.6,13.09-12.76C551.71,509.86,557.24,515.3,557.31,522.79Z" transform="translate(-308.14 -209.45)"/><path class="cls-10" d="M454,385.94l-7,.9-4,.33a4,4,0,0,0-3,.89c-5.14,1.26-10.19,1.64-14.84-1.63l-.26-.18c-1.29-2.58-6.13-3.52-3.62-7.85l.05,0c6.13-5.3,12.8-6.73,20.49-3.46,2.13.91,4.67,1.69,7.19.79l4.9.61C461.11,381.1,461.11,381.1,454,385.94Z" transform="translate(-308.14 -209.45)"/></svg>